<?xml version="1.0" standalone="no"?>
<!DOCTYPE svg PUBLIC "-//W3C//DTD SVG 20010904//EN"
 "http://www.w3.org/TR/2001/REC-SVG-20010904/DTD/svg10.dtd">
<svg version="1.0" xmlns="http://www.w3.org/2000/svg"
 width="396.000000pt" height="413.000000pt" viewBox="0 0 396.000000 413.000000"
 preserveAspectRatio="xMidYMid meet">

<g transform="translate(0.000000,413.000000) scale(0.100000,-0.100000)"
fill="#000000" stroke="none">
<path d="M1730 4054 c-799 -107 -1463 -707 -1665 -1503 -49 -194 -59 -282 -59
-516 0 -234 10 -322 59 -516 184 -725 743 -1286 1455 -1463 518 -128 1076 -32
1520 261 429 284 729 704 855 1202 49 194 59 282 59 516 0 234 -10 322 -59
516 -133 525 -474 980 -939 1254 -363 214 -811 304 -1226 249z m570 -93 c396
-70 734 -252 1025 -553 286 -294 459 -642 532 -1063 23 -139 23 -481 0 -620
-67 -386 -225 -723 -472 -1007 -208 -238 -521 -445 -820 -543 -421 -138 -882
-122 -1291 45 -613 250 -1056 820 -1170 1506 -25 147 -25 476 -1 619 77 447
263 805 578 1110 131 127 212 189 356 275 222 132 473 217 743 250 118 14 388
4 520 -19z"/>
<path d="M2066 3797 c-62 -81 -152 -307 -206 -520 -18 -70 -36 -124 -40 -120
-14 16 -79 180 -96 243 -13 47 -19 103 -19 205 -1 120 -4 140 -17 143 -24 5
-65 -56 -92 -134 -13 -38 -40 -108 -60 -156 -68 -167 -115 -378 -132 -590 -3
-49 -10 -88 -14 -88 -5 0 -34 42 -66 93 -97 157 -104 167 -114 167 -25 0 -32
-60 -27 -245 4 -149 10 -217 30 -316 24 -118 77 -333 92 -371 10 -25 -12 -23
-49 5 -17 13 -58 40 -92 60 -33 20 -77 50 -99 67 -106 85 -41 -65 107 -246 32
-39 58 -73 58 -76 0 -2 -22 -19 -49 -37 -116 -75 -181 -188 -167 -290 9 -64
53 -206 83 -266 36 -71 99 -152 132 -169 27 -14 28 -19 35 -102 12 -160 57
-344 114 -464 82 -175 265 -250 609 -251 161 0 330 21 370 47 30 19 105 119
138 183 56 112 100 242 139 413 5 21 20 35 65 58 72 36 107 77 171 200 97 190
132 346 110 502 -14 105 -36 146 -95 175 -129 65 -180 96 -177 106 2 7 23 57
47 112 69 155 70 204 5 149 -17 -15 -33 -25 -35 -22 -2 2 7 58 20 123 43 209
58 333 51 419 -13 157 -80 452 -141 623 -35 99 -58 135 -73 118 -5 -6 -30 -91
-57 -190 -59 -220 -153 -527 -164 -538 -12 -12 -15 0 -56 243 -63 376 -122
645 -160 738 -18 42 -47 42 -79 -1z m73 -179 c36 -158 60 -273 71 -348 5 -30
22 -131 38 -225 47 -266 82 -495 84 -555 2 -48 -6 -74 -66 -210 -67 -152 -82
-182 -155 -308 -30 -54 -38 -61 -46 -46 -12 21 -155 193 -233 281 -31 35 -60
76 -64 90 -7 25 -6 62 7 223 13 159 96 582 156 794 45 157 155 436 173 436 2
0 18 -60 35 -132z m-474 -226 c8 -35 31 -103 51 -150 20 -48 45 -115 57 -149
l21 -62 -22 -123 c-36 -199 -53 -326 -60 -447 l-7 -115 -63 75 c-35 41 -94
119 -130 174 l-67 100 3 90 c8 233 61 479 150 685 l37 85 8 -50 c4 -27 14 -79
22 -113z m986 -127 c34 -140 34 -137 12 -133 -10 2 -19 -4 -21 -14 -4 -20 18
-24 34 -8 14 14 54 -203 61 -325 6 -100 -23 -332 -60 -484 -21 -86 -24 -90
-98 -168 l-75 -81 7 52 c20 138 7 488 -22 599 -14 54 -45 48 -80 -16 l-26 -49
-6 46 c-5 35 -2 53 13 78 20 34 131 382 176 548 35 131 34 130 46 100 5 -14
23 -79 39 -145z m-1328 -505 c128 -214 237 -360 395 -529 149 -160 272 -311
294 -360 25 -54 18 -98 -20 -134 -29 -28 -78 -47 -120 -47 -14 0 -50 23 -90
58 -37 31 -142 110 -234 175 l-167 118 -25 82 c-83 275 -136 547 -136 709 0
83 8 96 32 51 11 -21 43 -76 71 -123z m1117 -684 l-21 -120 -89 -105 c-48 -58
-97 -114 -107 -124 -19 -17 -160 -53 -170 -43 -3 2 3 16 13 31 9 14 21 48 25
73 4 28 22 70 44 102 96 144 276 547 302 675 5 29 10 -17 16 -165 8 -187 6
-215 -13 -324z m245 7 c-59 -109 -160 -278 -192 -319 -17 -23 -29 -30 -44 -27
-15 4 -22 0 -26 -15 -6 -25 -45 -35 -110 -30 l-41 3 184 205 c170 190 264 284
273 275 2 -2 -18 -44 -44 -92z m-1205 -197 c107 -77 216 -154 243 -172 l47
-33 -46 -7 c-55 -8 -151 1 -190 18 -48 20 -114 78 -114 99 0 11 -10 23 -23 28
-27 10 -277 297 -277 318 0 5 83 -53 360 -251z"/>
<path d="M2184 2616 c-9 -24 4 -48 23 -44 12 2 18 12 18 28 0 29 -32 41 -41
16z"/>
<path d="M2257 2494 c-9 -10 2 -24 19 -24 8 0 14 7 14 15 0 15 -21 21 -33 9z"/>
<path d="M2227 2404 c-14 -15 -6 -34 14 -34 14 0 19 5 17 17 -3 18 -20 27 -31
17z"/>
<path d="M1610 2645 c-7 -8 -18 -15 -25 -15 -15 0 -28 -27 -19 -41 8 -14 44
-10 44 5 0 8 8 13 18 12 12 -1 17 6 17 23 0 29 -17 37 -35 16z"/>
<path d="M1603 2564 c-3 -8 -1 -20 5 -26 16 -16 42 -2 42 22 0 24 -38 28 -47
4z"/>
<path d="M2610 3245 c-16 -19 -5 -47 17 -43 22 4 29 43 9 51 -8 3 -20 -1 -26
-8z"/>
<path d="M2550 3170 c-18 -11 -4 -42 17 -38 10 2 19 10 21 19 4 19 -19 31 -38
19z"/>
<path d="M1810 1860 c0 -15 5 -20 18 -18 9 2 17 10 17 18 0 8 -8 16 -17 18
-13 2 -18 -3 -18 -18z"/>
<path d="M1926 1795 c-3 -9 1 -18 10 -22 19 -7 39 11 30 26 -10 16 -33 13 -40
-4z"/>
<path d="M1840 1745 c0 -18 5 -25 19 -25 24 0 33 13 25 34 -10 27 -44 20 -44
-9z"/>
<path d="M2320 1930 c-18 -11 -4 -42 17 -38 10 2 19 10 21 19 4 19 -19 31 -38
19z"/>
<path d="M2266 1867 c-22 -16 -14 -37 14 -37 26 0 35 19 18 36 -12 12 -17 12
-32 1z"/>
<path d="M1402 1883 c2 -10 10 -18 18 -18 8 0 16 8 18 18 2 12 -3 17 -18 17
-15 0 -20 -5 -18 -17z"/>
</g>
</svg>
